<svg width="287" height="44" viewBox="0 0 287 44" fill="none" xmlns="http://www.w3.org/2000/svg">
<path d="M34.46 11.255C35.18 12.875 35.615 14.96 35.765 17.51C35.945 20.03 36.035 24.17 36.035 29.93V32H25.55V23.405C25.55 23.315 25.55 23.18 25.55 23C25.55 22.43 25.55 21.995 25.55 21.695C25.55 21.365 25.52 20.9 25.46 20.3C25.43 19.7 25.37 19.235 25.28 18.905C25.22 18.545 25.1 18.11 24.92 17.6C24.77 17.06 24.575 16.64 24.335 16.34C24.125 16.01 23.84 15.665 23.48 15.305C23.15 14.945 22.76 14.66 22.31 14.45C21.86 14.24 21.32 14.075 20.69 13.955C20.06 13.805 19.37 13.73 18.62 13.73C16.7 13.73 15.155 14.015 13.985 14.585C12.845 15.125 11.78 15.905 10.79 16.925V32H0.215V5.945H10.79V9.545C11.75 8.855 12.485 8.36 12.995 8.06C13.535 7.73 14.27 7.355 15.2 6.935C16.16 6.485 17.195 6.17 18.305 5.99C19.415 5.81 20.69 5.72 22.13 5.72C23.54 5.72 24.785 5.78 25.865 5.9C26.945 6.02 28.07 6.26 29.24 6.62C30.44 6.98 31.475 7.55 32.345 8.33C33.245 9.11 33.95 10.085 34.46 11.255ZM56.7782 5.315C59.8682 5.315 62.5532 5.585 64.8332 6.125C67.1132 6.665 69.0932 7.55 70.7732 8.78C72.4532 10.01 73.6832 11.69 74.4632 13.82C75.2432 15.92 75.5132 18.455 75.2732 21.425H48.5432C48.6932 22.235 49.4282 22.895 50.7482 23.405C52.0682 23.915 54.0482 24.17 56.6882 24.17C58.9982 24.17 61.2932 24.02 63.5732 23.72C65.8832 23.42 67.6232 23.12 68.7932 22.82L70.5032 22.37L75.0032 29.66C74.9132 29.72 74.7482 29.81 74.5082 29.93C74.2682 30.02 73.6532 30.2 72.6632 30.47C71.7032 30.74 70.6082 30.98 69.3782 31.19C68.1482 31.4 66.4382 31.595 64.2482 31.775C62.0582 31.925 59.6582 32 57.0482 32C53.9882 32 51.3182 31.79 49.0382 31.37C46.7882 30.95 44.9432 30.365 43.5032 29.615C42.0932 28.865 40.9532 27.92 40.0832 26.78C39.2132 25.64 38.6132 24.425 38.2832 23.135C37.9532 21.845 37.7882 20.345 37.7882 18.635C37.7882 14.435 39.3782 11.165 42.5582 8.825C45.7682 6.485 50.5082 5.315 56.7782 5.315ZM56.8682 13.37C55.2182 13.37 53.8082 13.49 52.6382 13.73C51.4682 13.97 50.6132 14.285 50.0732 14.675C49.5332 15.035 49.1432 15.395 48.9032 15.755C48.6632 16.115 48.5432 16.475 48.5432 16.835H64.6532C64.6532 15.845 64.0532 15.02 62.8532 14.36C61.6832 13.7 59.6882 13.37 56.8682 13.37ZM113.625 5.9L102.375 18.95L113.625 32H100.62L94.2752 24.8L87.9302 32H74.7902L86.1752 18.95L74.7902 5.9H87.9302L94.2752 13.1L100.62 5.9H113.625ZM133.821 23.45C134.571 23.45 135.381 23.405 136.251 23.315C137.121 23.195 137.901 23.06 138.591 22.91C139.281 22.76 139.911 22.61 140.481 22.46C141.081 22.28 141.546 22.145 141.876 22.055C142.236 21.935 142.401 21.875 142.371 21.875L146.106 29.975C145.656 30.155 144.996 30.365 144.126 30.605C143.256 30.815 141.381 31.13 138.501 31.55C135.651 31.94 132.681 32.135 129.591 32.135C128.121 32.135 126.906 32.09 125.946 32C125.016 31.88 124.161 31.64 123.381 31.28C122.601 30.89 122.001 30.425 121.581 29.885C121.161 29.315 120.801 28.505 120.501 27.455C120.201 26.405 120.006 25.22 119.916 23.9C119.826 22.58 119.781 20.9 119.781 18.86V13.64H114.561V5.81H119.781V0.365H130.221V5.81H142.956V13.64H130.221V18.86C130.221 18.92 130.221 19.01 130.221 19.13C130.221 19.22 130.236 19.43 130.266 19.76C130.296 20.09 130.341 20.405 130.401 20.705C130.491 20.975 130.611 21.29 130.761 21.65C130.941 22.01 131.151 22.325 131.391 22.595C131.661 22.835 132.006 23.045 132.426 23.225C132.846 23.375 133.311 23.45 133.821 23.45ZM198.912 6.395H209.352V28.445C209.352 33.635 207.807 37.445 204.717 39.875C201.627 42.335 196.602 43.565 189.642 43.565C187.752 43.565 185.937 43.505 184.197 43.385C182.457 43.295 180.957 43.16 179.697 42.98C178.437 42.83 177.267 42.65 176.187 42.44C175.137 42.26 174.267 42.065 173.577 41.855C172.887 41.645 172.287 41.45 171.777 41.27C171.297 41.12 170.952 41 170.742 40.91L170.427 40.775L173.847 32.675C173.937 32.765 174.072 32.87 174.252 32.99C174.462 33.14 174.957 33.395 175.737 33.755C176.517 34.115 177.372 34.43 178.302 34.7C179.262 34.97 180.552 35.21 182.172 35.42C183.822 35.63 185.577 35.735 187.437 35.735C188.757 35.735 189.957 35.66 191.037 35.51C192.147 35.36 193.077 35.15 193.827 34.88C194.577 34.61 195.252 34.295 195.852 33.935C196.452 33.575 196.917 33.2 197.247 32.81C197.607 32.45 197.907 32.075 198.147 31.685C198.387 31.295 198.552 30.935 198.642 30.605C198.732 30.245 198.792 29.93 198.822 29.66C198.882 29.39 198.912 29.165 198.912 28.985V28.76V27.68C198.402 28.94 196.947 30.02 194.547 30.92C192.147 31.82 189.492 32.27 186.582 32.27C184.752 32.27 183.057 32.165 181.497 31.955C179.937 31.715 178.422 31.31 176.952 30.74C175.512 30.17 174.282 29.45 173.262 28.58C172.272 27.71 171.462 26.585 170.832 25.205C170.232 23.795 169.932 22.19 169.932 20.39C169.932 18.62 170.112 17.03 170.472 15.62C170.832 14.18 171.297 12.98 171.867 12.02C172.467 11.03 173.217 10.175 174.117 9.455C175.017 8.705 175.932 8.135 176.862 7.745C177.792 7.325 178.857 6.995 180.057 6.755C181.257 6.515 182.367 6.365 183.387 6.305C184.407 6.215 185.547 6.17 186.807 6.17C192.027 6.17 196.062 7.235 198.912 9.365V6.395ZM198.912 20.075V18.095C198.912 17.405 198.597 16.79 197.967 16.25C197.367 15.71 196.542 15.29 195.492 14.99C194.472 14.69 193.332 14.465 192.072 14.315C190.842 14.135 189.522 14.045 188.112 14.045C183.072 14.045 180.552 15.77 180.552 19.22C180.552 20.06 180.702 20.795 181.002 21.425C181.302 22.055 181.722 22.55 182.262 22.91C182.802 23.27 183.327 23.57 183.837 23.81C184.377 24.05 184.977 24.215 185.637 24.305C186.327 24.395 186.837 24.455 187.167 24.485C187.527 24.485 187.902 24.485 188.292 24.485C188.772 24.485 189.192 24.485 189.552 24.485C189.942 24.455 190.572 24.41 191.442 24.35C192.312 24.26 193.092 24.125 193.782 23.945C194.472 23.735 195.192 23.48 195.942 23.18C196.722 22.88 197.367 22.46 197.877 21.92C198.387 21.38 198.732 20.765 198.912 20.075ZM230.362 5.315C233.452 5.315 236.137 5.585 238.417 6.125C240.697 6.665 242.677 7.55 244.357 8.78C246.037 10.01 247.267 11.69 248.047 13.82C248.827 15.92 249.097 18.455 248.857 21.425H222.127C222.277 22.235 223.012 22.895 224.332 23.405C225.652 23.915 227.632 24.17 230.272 24.17C232.582 24.17 234.877 24.02 237.157 23.72C239.467 23.42 241.207 23.12 242.377 22.82L244.087 22.37L248.587 29.66C248.497 29.72 248.332 29.81 248.092 29.93C247.852 30.02 247.237 30.2 246.247 30.47C245.287 30.74 244.192 30.98 242.962 31.19C241.732 31.4 240.022 31.595 237.832 31.775C235.642 31.925 233.242 32 230.632 32C227.572 32 224.902 31.79 222.622 31.37C220.372 30.95 218.527 30.365 217.087 29.615C215.677 28.865 214.537 27.92 213.667 26.78C212.797 25.64 212.197 24.425 211.867 23.135C211.537 21.845 211.372 20.345 211.372 18.635C211.372 14.435 212.962 11.165 216.142 8.825C219.352 6.485 224.092 5.315 230.362 5.315ZM230.452 13.37C228.802 13.37 227.392 13.49 226.222 13.73C225.052 13.97 224.197 14.285 223.657 14.675C223.117 15.035 222.727 15.395 222.487 15.755C222.247 16.115 222.127 16.475 222.127 16.835H238.237C238.237 15.845 237.637 15.02 236.437 14.36C235.267 13.7 233.272 13.37 230.452 13.37ZM284.86 11.255C285.58 12.875 286.015 14.96 286.165 17.51C286.345 20.03 286.435 24.17 286.435 29.93V32H275.95V23.405C275.95 23.315 275.95 23.18 275.95 23C275.95 22.43 275.95 21.995 275.95 21.695C275.95 21.365 275.92 20.9 275.86 20.3C275.83 19.7 275.77 19.235 275.68 18.905C275.62 18.545 275.5 18.11 275.32 17.6C275.17 17.06 274.975 16.64 274.735 16.34C274.525 16.01 274.24 15.665 273.88 15.305C273.55 14.945 273.16 14.66 272.71 14.45C272.26 14.24 271.72 14.075 271.09 13.955C270.46 13.805 269.77 13.73 269.02 13.73C267.1 13.73 265.555 14.015 264.385 14.585C263.245 15.125 262.18 15.905 261.19 16.925V32H250.615V5.945H261.19V9.545C262.15 8.855 262.885 8.36 263.395 8.06C263.935 7.73 264.67 7.355 265.6 6.935C266.56 6.485 267.595 6.17 268.705 5.99C269.815 5.81 271.09 5.72 272.53 5.72C273.94 5.72 275.185 5.78 276.265 5.9C277.345 6.02 278.47 6.26 279.64 6.62C280.84 6.98 281.875 7.55 282.745 8.33C283.645 9.11 284.35 10.085 284.86 11.255Z" fill="url(#paint0_linear)"/>
<defs>
<linearGradient id="paint0_linear" x1="-0.999999" y1="32" x2="282.5" y2="8.50001" gradientUnits="userSpaceOnUse">
<stop stop-color="#2C66B8"/>
<stop offset="1" stop-color="#8859EC"/>
</linearGradient>
</defs>
</svg>
